<svg width="38" height="38" viewBox="0 0 38 38" fill="none" xmlns="http://www.w3.org/2000/svg">
<rect width="37.6812" height="37.6812" rx="18.8406" fill="#F27D16" fill-opacity="0.7"/>
<g clip-path="url(#clip0_139_2)">
<path d="M18.77 32.54C18.77 32.54 29.0975 22.753 29.0975 15.3275C29.0975 12.5885 28.0094 9.96164 26.0727 8.02485C24.1359 6.08807 21.509 5 18.77 5C16.031 5 13.4041 6.08807 11.4674 8.02485C9.53058 9.96164 8.4425 12.5885 8.4425 15.3275C8.4425 22.753 18.77 32.54 18.77 32.54ZM18.77 20.4913C17.4005 20.4913 16.0871 19.9472 15.1187 18.9788C14.1503 18.0104 13.6063 16.697 13.6063 15.3275C13.6063 13.958 14.1503 12.6446 15.1187 11.6762C16.0871 10.7078 17.4005 10.1638 18.77 10.1638C20.1395 10.1638 21.4529 10.7078 22.4213 11.6762C23.3897 12.6446 23.9338 13.958 23.9338 15.3275C23.9338 16.697 23.3897 18.0104 22.4213 18.9788C21.4529 19.9472 20.1395 20.4913 18.77 20.4913Z" fill="black"/>
</g>
<defs>
<clipPath id="clip0_139_2">
<rect width="27.54" height="27.54" fill="white" transform="translate(5 5)"/>
</clipPath>
</defs>
</svg>
