<svg width="39" height="38" viewBox="0 0 39 38" fill="none" xmlns="http://www.w3.org/2000/svg">
<rect x="0.434814" y="0.217407" width="37.6812" height="37.6812" rx="18.8406" fill="#F27D16" fill-opacity="0.7"/>
<g clip-path="url(#clip0_66_4)">
<path d="M19.2754 5.16907C26.9462 5.16907 33.1643 11.3871 33.1643 19.058C33.1643 26.7288 26.9462 32.9468 19.2754 32.9468C11.6045 32.9468 5.38647 26.7288 5.38647 19.058C5.38647 11.3871 11.6045 5.16907 19.2754 5.16907ZM19.2754 7.94685C16.3285 7.94685 13.5024 9.11748 11.4186 11.2012C9.33488 13.285 8.16425 16.1111 8.16425 19.058C8.16425 22.0048 9.33488 24.831 11.4186 26.9147C13.5024 28.9984 16.3285 30.1691 19.2754 30.1691C22.2222 30.1691 25.0484 28.9984 27.1321 26.9147C29.2158 24.831 30.3865 22.0048 30.3865 19.058C30.3865 16.1111 29.2158 13.285 27.1321 11.2012C25.0484 9.11748 22.2222 7.94685 19.2754 7.94685ZM19.2754 10.7246C19.6155 10.7247 19.9439 10.8496 20.1981 11.0756C20.4523 11.3017 20.6147 11.6132 20.6545 11.951L20.6643 12.1135V18.483L24.424 22.2427C24.6731 22.4926 24.8177 22.828 24.8285 23.1807C24.8392 23.5334 24.7153 23.877 24.482 24.1417C24.2486 24.4063 23.9232 24.5723 23.5719 24.6057C23.2206 24.6392 22.8698 24.5377 22.5906 24.3218L22.4601 24.2066L18.2934 20.0399C18.0776 19.8239 17.9389 19.5427 17.899 19.2399L17.8865 19.058V12.1135C17.8865 11.7452 18.0328 11.3919 18.2933 11.1314C18.5537 10.871 18.907 10.7246 19.2754 10.7246Z" fill="black"/>
</g>
<defs>
<clipPath id="clip0_66_4">
<rect width="33.3333" height="33.3333" fill="white" transform="translate(2.6087 2.3913)"/>
</clipPath>
</defs>
</svg>
